<mxfile host="app.diagrams.net" modified="2023-04-10T09:39:35.869Z" agent="Mozilla/5.0 (X11; Linux x86_64) AppleWebKit/537.36 (KHTML, like Gecko) Chrome/112.0.0.0 Safari/537.36" version="21.1.5" etag="whfNtuebt5bEIu1PUqPz" type="device">
  <diagram id="C5RBs43oDa-KdzZeNtuy" name="Page-1">
    <mxGraphModel dx="2780" dy="1667" grid="1" gridSize="10" guides="1" tooltips="1" connect="1" arrows="1" fold="1" page="1" pageScale="1" pageWidth="827" pageHeight="1169" math="0" shadow="0">
      <root>
        <mxCell id="WIyWlLk6GJQsqaUBKTNV-0" />
        <mxCell id="WIyWlLk6GJQsqaUBKTNV-1" parent="WIyWlLk6GJQsqaUBKTNV-0" />
        <mxCell id="14" value="" style="rounded=0;whiteSpace=wrap;html=1;fillColor=none;strokeWidth=3;" parent="WIyWlLk6GJQsqaUBKTNV-1" vertex="1">
          <mxGeometry x="-1160" y="45" width="800" height="515" as="geometry" />
        </mxCell>
        <mxCell id="BI5n3Qp8y2SINLpLzRSa-2" value="&lt;p style=&quot;margin:0px;margin-top:4px;text-align:center;&quot;&gt;&lt;b&gt;Logic&lt;/b&gt;&lt;/p&gt;&lt;p style=&quot;margin:0px;margin-left:4px;&quot;&gt;&lt;br&gt;&lt;/p&gt;" style="verticalAlign=top;align=left;overflow=fill;fontSize=12;fontFamily=Helvetica;html=1;whiteSpace=wrap;" parent="WIyWlLk6GJQsqaUBKTNV-1" vertex="1">
          <mxGeometry x="-1030" width="80" height="30" as="geometry" />
        </mxCell>
        <mxCell id="BI5n3Qp8y2SINLpLzRSa-64" style="edgeStyle=elbowEdgeStyle;rounded=0;orthogonalLoop=1;jettySize=auto;html=1;exitX=0;exitY=0.5;exitDx=0;exitDy=0;entryX=1;entryY=0.5;entryDx=0;entryDy=0;" parent="WIyWlLk6GJQsqaUBKTNV-1" source="BI5n3Qp8y2SINLpLzRSa-4" target="BI5n3Qp8y2SINLpLzRSa-52" edge="1">
          <mxGeometry relative="1" as="geometry">
            <mxPoint x="-1000" y="320" as="targetPoint" />
          </mxGeometry>
        </mxCell>
        <mxCell id="BI5n3Qp8y2SINLpLzRSa-4" value="&lt;p style=&quot;margin:0px;margin-top:4px;text-align:center;&quot;&gt;&lt;b&gt;CommandBox&lt;/b&gt;&lt;/p&gt;&lt;p style=&quot;margin:0px;margin-left:4px;&quot;&gt;&lt;br&gt;&lt;/p&gt;" style="verticalAlign=top;align=left;overflow=fill;fontSize=12;fontFamily=Helvetica;html=1;whiteSpace=wrap;" parent="WIyWlLk6GJQsqaUBKTNV-1" vertex="1">
          <mxGeometry x="-800" y="220" width="110" height="30" as="geometry" />
        </mxCell>
        <mxCell id="BI5n3Qp8y2SINLpLzRSa-39" style="edgeStyle=elbowEdgeStyle;rounded=0;orthogonalLoop=1;jettySize=auto;html=1;exitX=0.25;exitY=1;exitDx=0;exitDy=0;entryX=1;entryY=0.5;entryDx=0;entryDy=0;elbow=vertical;" parent="WIyWlLk6GJQsqaUBKTNV-1" source="BI5n3Qp8y2SINLpLzRSa-6" target="BI5n3Qp8y2SINLpLzRSa-15" edge="1">
          <mxGeometry relative="1" as="geometry">
            <Array as="points">
              <mxPoint x="-650" y="185" />
            </Array>
          </mxGeometry>
        </mxCell>
        <mxCell id="BI5n3Qp8y2SINLpLzRSa-42" style="edgeStyle=orthogonalEdgeStyle;rounded=0;orthogonalLoop=1;jettySize=auto;html=1;exitX=0.628;exitY=1.019;exitDx=0;exitDy=0;entryX=1;entryY=0.25;entryDx=0;entryDy=0;exitPerimeter=0;" parent="WIyWlLk6GJQsqaUBKTNV-1" source="BI5n3Qp8y2SINLpLzRSa-6" target="BI5n3Qp8y2SINLpLzRSa-17" edge="1">
          <mxGeometry relative="1" as="geometry" />
        </mxCell>
        <mxCell id="BI5n3Qp8y2SINLpLzRSa-43" style="edgeStyle=elbowEdgeStyle;rounded=0;orthogonalLoop=1;jettySize=auto;html=1;exitX=0.75;exitY=1;exitDx=0;exitDy=0;entryX=1;entryY=0.25;entryDx=0;entryDy=0;elbow=vertical;" parent="WIyWlLk6GJQsqaUBKTNV-1" source="BI5n3Qp8y2SINLpLzRSa-6" target="BI5n3Qp8y2SINLpLzRSa-18" edge="1">
          <mxGeometry relative="1" as="geometry">
            <mxPoint x="-750" y="695" as="targetPoint" />
            <Array as="points">
              <mxPoint x="-620" y="415" />
            </Array>
          </mxGeometry>
        </mxCell>
        <mxCell id="BI5n3Qp8y2SINLpLzRSa-44" style="edgeStyle=elbowEdgeStyle;rounded=0;orthogonalLoop=1;jettySize=auto;html=1;exitX=0.116;exitY=1.032;exitDx=0;exitDy=0;entryX=1;entryY=0.5;entryDx=0;entryDy=0;exitPerimeter=0;elbow=vertical;" parent="WIyWlLk6GJQsqaUBKTNV-1" source="BI5n3Qp8y2SINLpLzRSa-6" target="BI5n3Qp8y2SINLpLzRSa-20" edge="1">
          <mxGeometry relative="1" as="geometry">
            <Array as="points">
              <mxPoint x="-660" y="140" />
            </Array>
          </mxGeometry>
        </mxCell>
        <mxCell id="BI5n3Qp8y2SINLpLzRSa-45" style="edgeStyle=elbowEdgeStyle;rounded=0;orthogonalLoop=1;jettySize=auto;html=1;entryX=1;entryY=0.5;entryDx=0;entryDy=0;exitX=0.5;exitY=1;exitDx=0;exitDy=0;elbow=vertical;" parent="WIyWlLk6GJQsqaUBKTNV-1" source="BI5n3Qp8y2SINLpLzRSa-6" target="BI5n3Qp8y2SINLpLzRSa-16" edge="1">
          <mxGeometry relative="1" as="geometry">
            <mxPoint x="-620" y="230" as="sourcePoint" />
            <Array as="points">
              <mxPoint x="-640" y="288" />
            </Array>
          </mxGeometry>
        </mxCell>
        <mxCell id="BI5n3Qp8y2SINLpLzRSa-46" style="edgeStyle=elbowEdgeStyle;rounded=0;orthogonalLoop=1;jettySize=auto;html=1;entryX=1;entryY=0.5;entryDx=0;entryDy=0;exitX=0.371;exitY=1.019;exitDx=0;exitDy=0;elbow=vertical;exitPerimeter=0;" parent="WIyWlLk6GJQsqaUBKTNV-1" source="BI5n3Qp8y2SINLpLzRSa-6" target="BI5n3Qp8y2SINLpLzRSa-4" edge="1">
          <mxGeometry relative="1" as="geometry">
            <mxPoint x="-650" y="230" as="sourcePoint" />
            <Array as="points">
              <mxPoint x="-640" y="235" />
            </Array>
          </mxGeometry>
        </mxCell>
        <mxCell id="BI5n3Qp8y2SINLpLzRSa-48" style="edgeStyle=elbowEdgeStyle;rounded=0;orthogonalLoop=1;jettySize=auto;html=1;exitX=0.87;exitY=0.999;exitDx=0;exitDy=0;entryX=0;entryY=0.5;entryDx=0;entryDy=0;exitPerimeter=0;" parent="WIyWlLk6GJQsqaUBKTNV-1" source="BI5n3Qp8y2SINLpLzRSa-6" target="BI5n3Qp8y2SINLpLzRSa-19" edge="1">
          <mxGeometry relative="1" as="geometry">
            <Array as="points">
              <mxPoint x="-520" y="120" />
            </Array>
          </mxGeometry>
        </mxCell>
        <mxCell id="BI5n3Qp8y2SINLpLzRSa-6" value="&lt;p style=&quot;margin:0px;margin-top:4px;text-align:center;&quot;&gt;&lt;b&gt;MainWindow&lt;/b&gt;&lt;/p&gt;" style="verticalAlign=top;align=left;overflow=fill;fontSize=12;fontFamily=Helvetica;html=1;whiteSpace=wrap;" parent="WIyWlLk6GJQsqaUBKTNV-1" vertex="1">
          <mxGeometry x="-660" y="60" width="160" height="30" as="geometry" />
        </mxCell>
        <mxCell id="BI5n3Qp8y2SINLpLzRSa-11" value="" style="endArrow=classic;html=1;rounded=0;entryX=1;entryY=0.5;entryDx=0;entryDy=0;exitX=0.5;exitY=0;exitDx=0;exitDy=0;edgeStyle=orthogonalEdgeStyle;" parent="WIyWlLk6GJQsqaUBKTNV-1" source="BI5n3Qp8y2SINLpLzRSa-6" target="BI5n3Qp8y2SINLpLzRSa-2" edge="1">
          <mxGeometry width="50" height="50" relative="1" as="geometry">
            <mxPoint x="-510" y="220" as="sourcePoint" />
            <mxPoint x="-460" y="170" as="targetPoint" />
          </mxGeometry>
        </mxCell>
        <mxCell id="BI5n3Qp8y2SINLpLzRSa-15" value="&lt;p style=&quot;margin:0px;margin-top:4px;text-align:center;&quot;&gt;&lt;b&gt;HelpWindow&lt;/b&gt;&lt;/p&gt;" style="verticalAlign=top;align=left;overflow=fill;fontSize=12;fontFamily=Helvetica;html=1;whiteSpace=wrap;strokeColor=default;" parent="WIyWlLk6GJQsqaUBKTNV-1" vertex="1">
          <mxGeometry x="-790" y="170" width="100" height="30" as="geometry" />
        </mxCell>
        <mxCell id="BI5n3Qp8y2SINLpLzRSa-16" value="&lt;p style=&quot;margin:0px;margin-top:4px;text-align:center;&quot;&gt;&lt;b&gt;CommandLog&lt;/b&gt;&lt;/p&gt;" style="verticalAlign=top;align=left;overflow=fill;fontSize=12;fontFamily=Helvetica;html=1;whiteSpace=wrap;" parent="WIyWlLk6GJQsqaUBKTNV-1" vertex="1">
          <mxGeometry x="-800" y="272.5" width="110" height="30" as="geometry" />
        </mxCell>
        <mxCell id="9bSLiEjZamqKpTBy-hUJ-23" style="edgeStyle=elbowEdgeStyle;rounded=0;orthogonalLoop=1;jettySize=auto;html=1;entryX=1;entryY=0.25;entryDx=0;entryDy=0;exitX=0;exitY=0.782;exitDx=0;exitDy=0;exitPerimeter=0;" parent="WIyWlLk6GJQsqaUBKTNV-1" source="BI5n3Qp8y2SINLpLzRSa-17" target="9bSLiEjZamqKpTBy-hUJ-21" edge="1">
          <mxGeometry relative="1" as="geometry">
            <mxPoint x="-930" y="625" as="sourcePoint" />
            <mxPoint x="-990" y="610" as="targetPoint" />
          </mxGeometry>
        </mxCell>
        <mxCell id="9bSLiEjZamqKpTBy-hUJ-24" style="edgeStyle=elbowEdgeStyle;rounded=0;orthogonalLoop=1;jettySize=auto;html=1;exitX=0;exitY=0.373;exitDx=0;exitDy=0;entryX=1;entryY=0.5;entryDx=0;entryDy=0;exitPerimeter=0;" parent="WIyWlLk6GJQsqaUBKTNV-1" source="BI5n3Qp8y2SINLpLzRSa-17" target="9bSLiEjZamqKpTBy-hUJ-18" edge="1">
          <mxGeometry relative="1" as="geometry">
            <mxPoint x="-1020" y="521" as="targetPoint" />
          </mxGeometry>
        </mxCell>
        <mxCell id="9bSLiEjZamqKpTBy-hUJ-47" style="edgeStyle=elbowEdgeStyle;rounded=0;orthogonalLoop=1;jettySize=auto;html=1;exitX=1;exitY=0.75;exitDx=0;exitDy=0;endSize=20;endArrow=block;endFill=0;dashed=1;elbow=vertical;entryX=0.25;entryY=1;entryDx=0;entryDy=0;" parent="WIyWlLk6GJQsqaUBKTNV-1" source="BI5n3Qp8y2SINLpLzRSa-17" target="9bSLiEjZamqKpTBy-hUJ-44" edge="1">
          <mxGeometry relative="1" as="geometry">
            <mxPoint x="-450" y="330" as="targetPoint" />
            <Array as="points">
              <mxPoint x="-460" y="366" />
            </Array>
          </mxGeometry>
        </mxCell>
        <mxCell id="BI5n3Qp8y2SINLpLzRSa-17" value="&lt;p style=&quot;margin:0px;margin-top:4px;text-align:center;&quot;&gt;&lt;b&gt;EntityPanel&lt;/b&gt;&lt;/p&gt;&lt;p style=&quot;margin:0px;margin-left:4px;&quot;&gt;&lt;br&gt;&lt;/p&gt;" style="verticalAlign=top;align=left;overflow=fill;fontSize=12;fontFamily=Helvetica;html=1;whiteSpace=wrap;" parent="WIyWlLk6GJQsqaUBKTNV-1" vertex="1">
          <mxGeometry x="-797.5" y="328.75" width="105" height="50" as="geometry" />
        </mxCell>
        <mxCell id="9bSLiEjZamqKpTBy-hUJ-46" style="edgeStyle=elbowEdgeStyle;rounded=0;orthogonalLoop=1;jettySize=auto;html=1;exitX=1;exitY=0.75;exitDx=0;exitDy=0;endArrow=block;endFill=0;dashed=1;elbow=vertical;endSize=20;entryX=0.5;entryY=1;entryDx=0;entryDy=0;" parent="WIyWlLk6GJQsqaUBKTNV-1" source="BI5n3Qp8y2SINLpLzRSa-18" target="9bSLiEjZamqKpTBy-hUJ-44" edge="1">
          <mxGeometry relative="1" as="geometry">
            <mxPoint x="-490" y="330" as="targetPoint" />
            <Array as="points">
              <mxPoint x="-550" y="440" />
            </Array>
          </mxGeometry>
        </mxCell>
        <mxCell id="13" style="edgeStyle=elbowEdgeStyle;elbow=vertical;html=1;exitX=0.5;exitY=1;exitDx=0;exitDy=0;entryX=0.5;entryY=0;entryDx=0;entryDy=0;startArrow=none;startFill=0;endArrow=classic;endFill=1;endSize=6;" parent="WIyWlLk6GJQsqaUBKTNV-1" source="BI5n3Qp8y2SINLpLzRSa-18" target="9bSLiEjZamqKpTBy-hUJ-27" edge="1">
          <mxGeometry relative="1" as="geometry" />
        </mxCell>
        <mxCell id="BI5n3Qp8y2SINLpLzRSa-18" value="&lt;p style=&quot;margin:0px;margin-top:4px;text-align:center;&quot;&gt;&lt;b&gt;StatisticsBox&lt;/b&gt;&lt;/p&gt;" style="verticalAlign=top;align=left;overflow=fill;fontSize=12;fontFamily=Helvetica;html=1;whiteSpace=wrap;" parent="WIyWlLk6GJQsqaUBKTNV-1" vertex="1">
          <mxGeometry x="-795" y="402.5" width="105" height="50" as="geometry" />
        </mxCell>
        <mxCell id="9bSLiEjZamqKpTBy-hUJ-51" style="edgeStyle=orthogonalEdgeStyle;rounded=0;orthogonalLoop=1;jettySize=auto;html=1;entryX=0.5;entryY=0;entryDx=0;entryDy=0;" parent="WIyWlLk6GJQsqaUBKTNV-1" source="BI5n3Qp8y2SINLpLzRSa-19" target="9bSLiEjZamqKpTBy-hUJ-44" edge="1">
          <mxGeometry relative="1" as="geometry" />
        </mxCell>
        <mxCell id="BI5n3Qp8y2SINLpLzRSa-19" value="&lt;p style=&quot;margin:0px;margin-top:4px;text-align:center;&quot;&gt;&lt;b&gt;TabsPanelList&lt;/b&gt;&lt;/p&gt;" style="verticalAlign=top;align=left;overflow=fill;fontSize=12;fontFamily=Helvetica;html=1;whiteSpace=wrap;" parent="WIyWlLk6GJQsqaUBKTNV-1" vertex="1">
          <mxGeometry x="-500" y="125" width="110" height="30" as="geometry" />
        </mxCell>
        <mxCell id="BI5n3Qp8y2SINLpLzRSa-20" value="&lt;p style=&quot;margin:0px;margin-top:4px;text-align:center;&quot;&gt;&lt;b&gt;StatusBarFooter&lt;/b&gt;&lt;/p&gt;" style="verticalAlign=top;align=left;overflow=fill;fontSize=12;fontFamily=Helvetica;html=1;whiteSpace=wrap;" parent="WIyWlLk6GJQsqaUBKTNV-1" vertex="1">
          <mxGeometry x="-815" y="125" width="127.5" height="30" as="geometry" />
        </mxCell>
        <mxCell id="BI5n3Qp8y2SINLpLzRSa-52" value="&lt;p style=&quot;margin:0px;margin-top:4px;text-align:center;&quot;&gt;&lt;b&gt;{abstract}&lt;/b&gt;&lt;/p&gt;&lt;p style=&quot;margin:0px;margin-top:4px;text-align:center;&quot;&gt;&lt;b&gt;Mode&lt;/b&gt;&lt;/p&gt;" style="verticalAlign=top;align=left;overflow=fill;fontSize=12;fontFamily=Helvetica;html=1;whiteSpace=wrap;" parent="WIyWlLk6GJQsqaUBKTNV-1" vertex="1">
          <mxGeometry x="-940" y="155" width="90" height="50" as="geometry" />
        </mxCell>
        <mxCell id="9bSLiEjZamqKpTBy-hUJ-1" style="edgeStyle=elbowEdgeStyle;rounded=0;orthogonalLoop=1;jettySize=auto;html=1;endArrow=block;endFill=0;endSize=20;exitX=1;exitY=0.5;exitDx=0;exitDy=0;entryX=0.5;entryY=1;entryDx=0;entryDy=0;elbow=vertical;" parent="WIyWlLk6GJQsqaUBKTNV-1" source="BI5n3Qp8y2SINLpLzRSa-65" target="BI5n3Qp8y2SINLpLzRSa-52" edge="1">
          <mxGeometry relative="1" as="geometry">
            <mxPoint x="-1190" y="412.5" as="sourcePoint" />
            <mxPoint x="-890" y="210" as="targetPoint" />
            <Array as="points">
              <mxPoint x="-970" y="290" />
            </Array>
          </mxGeometry>
        </mxCell>
        <mxCell id="9bSLiEjZamqKpTBy-hUJ-6" style="edgeStyle=elbowEdgeStyle;rounded=0;orthogonalLoop=1;jettySize=auto;html=1;exitX=-0.003;exitY=0.36;exitDx=0;exitDy=0;exitPerimeter=0;entryX=0;entryY=0.5;entryDx=0;entryDy=0;" parent="WIyWlLk6GJQsqaUBKTNV-1" source="BI5n3Qp8y2SINLpLzRSa-65" target="BI5n3Qp8y2SINLpLzRSa-6" edge="1">
          <mxGeometry relative="1" as="geometry">
            <mxPoint x="-1360" y="630" as="sourcePoint" />
            <mxPoint x="-675" y="80" as="targetPoint" />
            <Array as="points">
              <mxPoint x="-1100" y="180" />
            </Array>
          </mxGeometry>
        </mxCell>
        <mxCell id="9bSLiEjZamqKpTBy-hUJ-10" style="edgeStyle=elbowEdgeStyle;rounded=0;orthogonalLoop=1;jettySize=auto;html=1;exitX=0;exitY=0.75;exitDx=0;exitDy=0;entryX=0;entryY=0.5;entryDx=0;entryDy=0;" parent="WIyWlLk6GJQsqaUBKTNV-1" source="BI5n3Qp8y2SINLpLzRSa-65" target="BI5n3Qp8y2SINLpLzRSa-2" edge="1">
          <mxGeometry relative="1" as="geometry">
            <mxPoint x="-1290" as="targetPoint" />
            <Array as="points">
              <mxPoint x="-1130" y="160" />
            </Array>
          </mxGeometry>
        </mxCell>
        <mxCell id="BI5n3Qp8y2SINLpLzRSa-65" value="&lt;p style=&quot;margin:0px;margin-top:4px;text-align:center;&quot;&gt;&lt;b&gt;SearchMode&lt;/b&gt;&lt;/p&gt;" style="verticalAlign=top;align=left;overflow=fill;fontSize=12;fontFamily=Helvetica;html=1;whiteSpace=wrap;" parent="WIyWlLk6GJQsqaUBKTNV-1" vertex="1">
          <mxGeometry x="-1060" y="272.5" width="120" height="30" as="geometry" />
        </mxCell>
        <mxCell id="9bSLiEjZamqKpTBy-hUJ-2" value="" style="edgeStyle=elbowEdgeStyle;rounded=0;orthogonalLoop=1;jettySize=auto;html=1;endArrow=block;endFill=0;endSize=20;exitX=1;exitY=0.5;exitDx=0;exitDy=0;entryX=0.5;entryY=1;entryDx=0;entryDy=0;elbow=vertical;" parent="WIyWlLk6GJQsqaUBKTNV-1" source="9bSLiEjZamqKpTBy-hUJ-0" target="BI5n3Qp8y2SINLpLzRSa-52" edge="1">
          <mxGeometry relative="1" as="geometry">
            <mxPoint x="-1170" y="322.5" as="targetPoint" />
            <Array as="points">
              <mxPoint x="-910" y="240" />
            </Array>
          </mxGeometry>
        </mxCell>
        <mxCell id="9bSLiEjZamqKpTBy-hUJ-7" style="edgeStyle=elbowEdgeStyle;rounded=0;orthogonalLoop=1;jettySize=auto;html=1;exitX=0;exitY=0.5;exitDx=0;exitDy=0;endArrow=classic;endFill=1;entryX=0;entryY=0.5;entryDx=0;entryDy=0;" parent="WIyWlLk6GJQsqaUBKTNV-1" source="9bSLiEjZamqKpTBy-hUJ-0" target="BI5n3Qp8y2SINLpLzRSa-6" edge="1">
          <mxGeometry relative="1" as="geometry">
            <mxPoint x="-675" y="100" as="targetPoint" />
            <Array as="points">
              <mxPoint x="-1100" y="160" />
            </Array>
          </mxGeometry>
        </mxCell>
        <mxCell id="9bSLiEjZamqKpTBy-hUJ-0" value="&lt;p style=&quot;margin:0px;margin-top:4px;text-align:center;&quot;&gt;&lt;b&gt;CommandMode&lt;/b&gt;&lt;/p&gt;" style="verticalAlign=top;align=left;overflow=fill;fontSize=12;fontFamily=Helvetica;html=1;whiteSpace=wrap;" parent="WIyWlLk6GJQsqaUBKTNV-1" vertex="1">
          <mxGeometry x="-1060" y="223.75" width="120" height="30" as="geometry" />
        </mxCell>
        <mxCell id="9bSLiEjZamqKpTBy-hUJ-3" style="edgeStyle=orthogonalEdgeStyle;rounded=0;orthogonalLoop=1;jettySize=auto;html=1;exitX=0.5;exitY=1;exitDx=0;exitDy=0;" parent="WIyWlLk6GJQsqaUBKTNV-1" source="9bSLiEjZamqKpTBy-hUJ-0" target="9bSLiEjZamqKpTBy-hUJ-0" edge="1">
          <mxGeometry relative="1" as="geometry" />
        </mxCell>
        <mxCell id="9bSLiEjZamqKpTBy-hUJ-22" style="edgeStyle=orthogonalEdgeStyle;rounded=0;orthogonalLoop=1;jettySize=auto;html=1;entryX=0.5;entryY=0;entryDx=0;entryDy=0;dashed=1;" parent="WIyWlLk6GJQsqaUBKTNV-1" source="9bSLiEjZamqKpTBy-hUJ-18" target="9bSLiEjZamqKpTBy-hUJ-21" edge="1">
          <mxGeometry relative="1" as="geometry">
            <mxPoint x="-930" y="617.5" as="sourcePoint" />
            <Array as="points" />
          </mxGeometry>
        </mxCell>
        <mxCell id="9bSLiEjZamqKpTBy-hUJ-18" value="&lt;p style=&quot;margin:0px;margin-top:4px;text-align:center;&quot;&gt;&lt;b&gt;EntityTab&lt;/b&gt;&lt;/p&gt;&lt;hr&gt;" style="verticalAlign=top;align=left;overflow=fill;fontSize=12;fontFamily=Helvetica;html=1;whiteSpace=wrap;" parent="WIyWlLk6GJQsqaUBKTNV-1" vertex="1">
          <mxGeometry x="-1020" y="335" width="160" height="25" as="geometry" />
        </mxCell>
        <mxCell id="9bSLiEjZamqKpTBy-hUJ-21" value="&lt;p style=&quot;margin:0px;margin-top:4px;text-align:center;&quot;&gt;&lt;b&gt;EntityList&lt;/b&gt;&lt;/p&gt;" style="verticalAlign=top;align=left;overflow=fill;fontSize=12;fontFamily=Helvetica;html=1;whiteSpace=wrap;" parent="WIyWlLk6GJQsqaUBKTNV-1" vertex="1">
          <mxGeometry x="-1020" y="402.5" width="160" height="50" as="geometry" />
        </mxCell>
        <mxCell id="9bSLiEjZamqKpTBy-hUJ-28" style="edgeStyle=elbowEdgeStyle;rounded=0;orthogonalLoop=1;jettySize=auto;html=1;exitX=0;exitY=0.75;exitDx=0;exitDy=0;entryX=1;entryY=0.5;entryDx=0;entryDy=0;" parent="WIyWlLk6GJQsqaUBKTNV-1" source="9bSLiEjZamqKpTBy-hUJ-27" target="9bSLiEjZamqKpTBy-hUJ-33" edge="1">
          <mxGeometry relative="1" as="geometry" />
        </mxCell>
        <mxCell id="9bSLiEjZamqKpTBy-hUJ-38" style="edgeStyle=elbowEdgeStyle;rounded=0;orthogonalLoop=1;jettySize=auto;html=1;exitX=-0.003;exitY=0.431;exitDx=0;exitDy=0;exitPerimeter=0;entryX=1;entryY=0.75;entryDx=0;entryDy=0;" parent="WIyWlLk6GJQsqaUBKTNV-1" source="9bSLiEjZamqKpTBy-hUJ-27" target="9bSLiEjZamqKpTBy-hUJ-21" edge="1">
          <mxGeometry relative="1" as="geometry">
            <mxPoint x="-1020" y="475" as="targetPoint" />
          </mxGeometry>
        </mxCell>
        <mxCell id="9bSLiEjZamqKpTBy-hUJ-49" style="edgeStyle=elbowEdgeStyle;rounded=0;orthogonalLoop=1;jettySize=auto;html=1;exitX=1;exitY=0.75;exitDx=0;exitDy=0;endArrow=block;endFill=0;dashed=1;entryX=0.75;entryY=1;entryDx=0;entryDy=0;elbow=vertical;endSize=20;" parent="WIyWlLk6GJQsqaUBKTNV-1" source="9bSLiEjZamqKpTBy-hUJ-27" target="9bSLiEjZamqKpTBy-hUJ-44" edge="1">
          <mxGeometry relative="1" as="geometry">
            <mxPoint x="-300" y="640" as="targetPoint" />
            <Array as="points">
              <mxPoint x="-530" y="517" />
            </Array>
          </mxGeometry>
        </mxCell>
        <mxCell id="9bSLiEjZamqKpTBy-hUJ-27" value="&lt;p style=&quot;margin:0px;margin-top:4px;text-align:center;&quot;&gt;&lt;b&gt;StatisticsPanel&lt;/b&gt;&lt;/p&gt;" style="verticalAlign=top;align=left;overflow=fill;fontSize=12;fontFamily=Helvetica;html=1;whiteSpace=wrap;" parent="WIyWlLk6GJQsqaUBKTNV-1" vertex="1">
          <mxGeometry x="-799.38" y="480" width="113.75" height="50" as="geometry" />
        </mxCell>
        <mxCell id="9bSLiEjZamqKpTBy-hUJ-43" style="edgeStyle=orthogonalEdgeStyle;rounded=0;orthogonalLoop=1;jettySize=auto;html=1;exitX=0.5;exitY=0;exitDx=0;exitDy=0;entryX=0.5;entryY=1;entryDx=0;entryDy=0;dashed=1;" parent="WIyWlLk6GJQsqaUBKTNV-1" source="9bSLiEjZamqKpTBy-hUJ-33" target="9bSLiEjZamqKpTBy-hUJ-21" edge="1">
          <mxGeometry relative="1" as="geometry" />
        </mxCell>
        <mxCell id="9bSLiEjZamqKpTBy-hUJ-33" value="&lt;p style=&quot;margin:0px;margin-top:4px;text-align:center;&quot;&gt;&lt;b&gt;StatisticsTab&lt;/b&gt;&lt;/p&gt;" style="verticalAlign=top;align=left;overflow=fill;fontSize=12;fontFamily=Helvetica;html=1;whiteSpace=wrap;" parent="WIyWlLk6GJQsqaUBKTNV-1" vertex="1">
          <mxGeometry x="-1020" y="500" width="160" height="30" as="geometry" />
        </mxCell>
        <mxCell id="9bSLiEjZamqKpTBy-hUJ-44" value="&lt;p style=&quot;margin:0px;margin-top:4px;text-align:center;&quot;&gt;&lt;b&gt;&amp;lt;&amp;lt;interface&amp;gt;&amp;gt;&lt;/b&gt;&lt;/p&gt;&lt;p style=&quot;margin:0px;margin-top:4px;text-align:center;&quot;&gt;&lt;b&gt;TabsPanel&lt;/b&gt;&lt;/p&gt;" style="verticalAlign=top;align=left;overflow=fill;fontSize=12;fontFamily=Helvetica;html=1;whiteSpace=wrap;" parent="WIyWlLk6GJQsqaUBKTNV-1" vertex="1">
          <mxGeometry x="-500" y="206.25" width="110" height="47.5" as="geometry" />
        </mxCell>
        <mxCell id="16" value="&lt;h1&gt;UI&lt;/h1&gt;" style="text;html=1;strokeColor=none;fillColor=none;spacing=5;spacingTop=-20;whiteSpace=wrap;overflow=hidden;rounded=0;strokeWidth=3;" parent="WIyWlLk6GJQsqaUBKTNV-1" vertex="1">
          <mxGeometry x="-1150" y="500" width="40" height="40" as="geometry" />
        </mxCell>
      </root>
    </mxGraphModel>
  </diagram>
</mxfile>
